# xmcd CD database file
#
# Track frame offsets:
#	150
#	35401
#	57576
#	82480
#	105791
#	135970
#	172275
#	201203
#	229236
#
# Disc length: 3403 seconds
#
# Revision: 0
# Processed by: cddbd v1.5.2PL0 Copyright (c) Steve Scherf et al.
# Submitted via: CDex 1.51
#
DISCID=7c0d4909
DTITLE=Dan Gibson - Solitudes - Lullabies and Butterflies
DYEAR=1997
DGENRE=New Age
TTITLE0=Lullaby - Brahms
TTITLE1=Hush Little Baby
TTITLE2=To A Wild Rose - MacDowell
TTITLE3=Lento From Sonata In Bbm - Chopin
TTITLE4=Menuet - Ravel
TTITLE5=Hymn Of The Child On Awakening - Liszt
TTITLE6=Rock A Bye Baby
TTITLE7=Sleep, Little Sarah - Maxwell and Kuld
TTITLE8=Twinkle, Twinkle Little Star - Mozart
EXTD=YEAR: 1997
EXTT0=
EXTT1=
EXTT2=
EXTT3=
EXTT4=
EXTT5=
EXTT6=
EXTT7=
EXTT8=
PLAYORDER=
